<svg width="24" height="24" viewBox="0 0 24 24" fill="none" xmlns="http://www.w3.org/2000/svg">
<path fill-rule="evenodd" clip-rule="evenodd" d="M5.25 8.25L10.6825 5.23194C11.4101 4.8277 12 5.17366 12 5.9931V18.0069C12 18.8315 11.4128 19.1738 10.6825 18.7681L5.25 15.75H2.2522C1.83677 15.75 1.5 15.4083 1.5 15.0035V8.99655C1.5 8.58424 1.82841 8.25 2.2522 8.25H5.25ZM6.75 9.13261V14.8674L10.5 16.9507V7.04927L6.75 9.13261ZM5.25 9.75H3V14.25H5.25V9.75Z" fill="white"/>
<path d="M15.3483 9.34835C15.0555 9.64124 15.0555 10.1161 15.3483 10.409L16.9393 12L15.3483 13.591C15.0555 13.8839 15.0555 14.3588 15.3483 14.6517C15.6412 14.9445 16.1161 14.9445 16.409 14.6517L18 13.0607L19.591 14.6517C19.8839 14.9445 20.3588 14.9445 20.6516 14.6517C20.9445 14.3588 20.9445 13.8839 20.6516 13.591L19.0607 12L20.6516 10.409C20.9445 10.1161 20.9445 9.64124 20.6516 9.34835C20.3588 9.05546 19.8839 9.05546 19.591 9.34835L18 10.9393L16.409 9.34835C16.1161 9.05546 15.6412 9.05546 15.3483 9.34835Z" fill="white"/>
</svg>
